<svg width="236" height="262" viewBox="0 0 236 262" fill="none" xmlns="http://www.w3.org/2000/svg">
<g filter="url(#filter0_i_7_12)">
<path d="M25 173.5C25 143.566 25 128.599 33.1717 119.3C41.3434 110 54.4956 110 80.8 110H155.2C181.504 110 194.656 110 202.828 119.3C211 128.599 211 143.566 211 173.5C211 203.434 211 218.401 202.828 227.7C194.656 237 181.504 237 155.2 237H80.8C54.4956 237 41.3434 237 33.1717 227.7C25 218.401 25 203.434 25 173.5Z" stroke="#0E492E" stroke-width="50"/>
</g>
<g filter="url(#filter1_i_7_12)">
<path d="M62 110V88.75C62 53.5418 87.072 25 118 25C148.928 25 174 53.5418 174 88.75V110" stroke="#0E492E" stroke-width="50" stroke-linecap="round"/>
</g>
<defs>
<filter id="filter0_i_7_12" x="-0.000244141" y="84.9995" width="240" height="181.001" filterUnits="userSpaceOnUse" color-interpolation-filters="sRGB">
<feFlood flood-opacity="0" result="BackgroundImageFix"/>
<feBlend mode="normal" in="SourceGraphic" in2="BackgroundImageFix" result="shape"/>
<feColorMatrix in="SourceAlpha" type="matrix" values="0 0 0 0 0 0 0 0 0 0 0 0 0 0 0 0 0 0 127 0" result="hardAlpha"/>
<feOffset dx="9" dy="4"/>
<feGaussianBlur stdDeviation="2"/>
<feComposite in2="hardAlpha" operator="arithmetic" k2="-1" k3="1"/>
<feColorMatrix type="matrix" values="0 0 0 0 0 0 0 0 0 0 0 0 0 0 0 0 0 0 0.25 0"/>
<feBlend mode="normal" in2="shape" result="effect1_innerShadow_7_12"/>
</filter>
<filter id="filter1_i_7_12" x="37" y="0" width="166" height="139" filterUnits="userSpaceOnUse" color-interpolation-filters="sRGB">
<feFlood flood-opacity="0" result="BackgroundImageFix"/>
<feBlend mode="normal" in="SourceGraphic" in2="BackgroundImageFix" result="shape"/>
<feColorMatrix in="SourceAlpha" type="matrix" values="0 0 0 0 0 0 0 0 0 0 0 0 0 0 0 0 0 0 127 0" result="hardAlpha"/>
<feOffset dx="9" dy="4"/>
<feGaussianBlur stdDeviation="2"/>
<feComposite in2="hardAlpha" operator="arithmetic" k2="-1" k3="1"/>
<feColorMatrix type="matrix" values="0 0 0 0 0 0 0 0 0 0 0 0 0 0 0 0 0 0 0.25 0"/>
<feBlend mode="normal" in2="shape" result="effect1_innerShadow_7_12"/>
</filter>
</defs>
</svg>
